<?xml version="1.0" encoding="utf-8"?><svg xml:space="preserve" viewBox="0 0 100 100" y="0" x="0" xmlns="http://www.w3.org/2000/svg" id="Layer_1" version="1.1" width="216px" height="216px" xmlns:xlink="http://www.w3.org/1999/xlink" style="width:100%;height:100%;background-size:initial;background-repeat-y:initial;background-repeat-x:initial;background-position-y:initial;background-position-x:initial;background-origin:initial;background-image:initial;background-color: transparent;background-clip:initial;background-attachment:initial;animation-play-state:paused" ><g class="ldl-scale" style="transform-origin:50% 50%;transform:rotate(0deg) scale(0.78, 0.78);animation-play-state:paused" ><path fill="#d65a62" d="M50 27.5c-2.2 0-4-1.8-4-4v-12c0-2.2 1.8-4 4-4s4 1.8 4 4v12c0 2.2-1.8 4-4 4z" style="fill:rgb(214, 90, 98);animation-play-state:paused" ></path>
<path fill="#ea7c60" d="M38.8 30.5c-1.9 1.1-4.4.4-5.5-1.5l-6-10.4c-1.1-1.9-.4-4.4 1.5-5.5 1.9-1.1 4.4-.4 5.5 1.5l6 10.4c1 2 .4 4.4-1.5 5.5z" style="fill:rgb(234, 124, 96);animation-play-state:paused" ></path>
<path fill="#f0af6b" d="M30.5 38.7c-1.1 1.9-3.6 2.6-5.5 1.5l-10.4-6c-1.9-1.1-2.6-3.6-1.5-5.5s3.6-2.6 5.5-1.5l10.4 6c2 1.2 2.6 3.6 1.5 5.5z" style="fill:rgb(240, 175, 107);animation-play-state:paused" ></path>
<path fill="#d65a62" d="M27.5 50c0 2.2-1.8 4-4 4h-12c-2.2 0-4-1.8-4-4s1.8-4 4-4h12c2.2 0 4 1.8 4 4z" style="fill:rgb(214, 90, 98);animation-play-state:paused" ></path>
<path fill="#ea7c60" d="M30.5 61.2c1.1 1.9.4 4.4-1.5 5.5l-10.4 6c-1.9 1.1-4.4.4-5.5-1.5-1.1-1.9-.4-4.4 1.5-5.5l10.4-6c2-1 4.4-.4 5.5 1.5z" style="fill:rgb(234, 124, 96);animation-play-state:paused" ></path>
<path fill="#f0af6b" d="M38.7 69.5c1.9 1.1 2.6 3.6 1.5 5.5l-6 10.4c-1.1 1.9-3.6 2.6-5.5 1.5s-2.6-3.6-1.5-5.5l6-10.4c1.2-2 3.6-2.6 5.5-1.5z" style="fill:rgb(240, 175, 107);animation-play-state:paused" ></path>
<path fill="#d65a62" d="M50 72.5c2.2 0 4 1.8 4 4v12c0 2.2-1.8 4-4 4s-4-1.8-4-4v-12c0-2.2 1.8-4 4-4z" style="fill:rgb(214, 90, 98);animation-play-state:paused" ></path>
<path fill="#ea7c60" d="M61.2 69.5c1.9-1.1 4.4-.4 5.5 1.5l6 10.4c1.1 1.9.4 4.4-1.5 5.5-1.9 1.1-4.4.4-5.5-1.5l-6-10.4c-1-2-.4-4.4 1.5-5.5z" style="fill:rgb(234, 124, 96);animation-play-state:paused" ></path>
<path fill="#f0af6b" d="M69.5 61.3c1.1-1.9 3.6-2.6 5.5-1.5l10.4 6c1.9 1.1 2.6 3.6 1.5 5.5s-3.6 2.6-5.5 1.5l-10.4-6c-2-1.2-2.6-3.6-1.5-5.5z" style="fill:rgb(240, 175, 107);animation-play-state:paused" ></path>
<path fill="#d65a62" d="M72.5 50c0-2.2 1.8-4 4-4h12c2.2 0 4 1.8 4 4s-1.8 4-4 4h-12c-2.2 0-4-1.8-4-4z" style="fill:rgb(214, 90, 98);animation-play-state:paused" ></path>
<path fill="#ea7c60" d="M69.5 38.8c-1.1-1.9-.4-4.4 1.5-5.5l10.4-6c1.9-1.1 4.4-.4 5.5 1.5 1.1 1.9.4 4.4-1.5 5.5l-10.4 6c-2 1-4.4.4-5.5-1.5z" style="fill:rgb(234, 124, 96);animation-play-state:paused" ></path>
<path fill="#f0af6b" d="M61.3 30.5c-1.9-1.1-2.6-3.6-1.5-5.5l6-10.4c1.1-1.9 3.6-2.6 5.5-1.5s2.6 3.6 1.5 5.5l-6 10.4c-1.2 2-3.6 2.6-5.5 1.5z" style="fill:rgb(240, 175, 107);animation-play-state:paused" ></path>
<metadata xmlns:d="https://loading.io/stock/" style="animation-play-state:paused" ><d:name style="animation-play-state:paused" >spinner</d:name>
<d:tags style="animation-play-state:paused" >loader,preloader,ajax spin,loading icon,spinner,spinner</d:tags>
<d:license style="animation-play-state:paused" >free</d:license>
<d:slug style="animation-play-state:paused" >h25hi5</d:slug></metadata></g><!-- generated by https://loading.io/ --></svg>